# xmcd
#
# Track frame offsets: 
#        150
#        22297
#        47105
#        69162
#        83440
#        95860
#        118345
#        136307
#        146010
#        154060
#        167415
#        181230
#        192117
#        208415
#        220235
#        238497
#        257032
#        270195
#
# Disc length: 3822 seconds
#
# Revision: 6
# Processed by: cddbd v1.5.2PL0 Copyright (c) Steve Scherf et al.
# Submitted via: ExactAudioCopy v1.0b3
#
DISCID=0c0eec12
DTITLE=Renft - Wer die Rose ehrt - Das Erbe
DYEAR=1994
DGENRE=DDR-Rock
TTITLE0=Zwischen Liebe und Zorn
TTITLE1=Cäsars Blues
TTITLE2=Der Apfeltraum
TTITLE3=Wer die Rose ehrt
TTITLE4=Chilenisches Metall
TTITLE5=Nach der Schlacht
TTITLE6=Als ich wie ein Vogel war
TTITLE7=Kinder ich bin nicht der Sandmann
TTITLE8=Baggerführer Willi
TTITLE9=Ketten werden knapper
TTITLE10=Liebeslied
TTITLE11=Der Witz
TTITLE12=Wandersmann
TTITLE13=Ich und der Rock
TTITLE14=Gänselieschen
TTITLE15=Was mir fehlt
TTITLE16=Irgendwann werd ich mal ...
TTITLE17=Besinnung
EXTD=YEAR: 1994
EXTT0=
EXTT1=
EXTT2=
EXTT3=
EXTT4=
EXTT5=
EXTT6=
EXTT7=
EXTT8=
EXTT9=
EXTT10=
EXTT11=
EXTT12=
EXTT13=
EXTT14=
EXTT15=
EXTT16=
EXTT17=
PLAYORDER=
